<svg width="44" height="45" viewBox="0 0 44 45" fill="none" xmlns="http://www.w3.org/2000/svg">
<g clip-path="url(#clip0)">
<path d="M3.466 33.0839H9.16437V39.0316C9.16437 39.8528 8.52656 40.5185 7.73978 40.5185H4.89059C4.10381 40.5185 3.466 39.8528 3.466 39.0316V33.0839Z" fill="#137DEA"/>
<path d="M40.5055 33.0839V39.2792C40.4323 40.0278 39.7996 40.5782 39.0809 40.5185H36.2317C35.5131 40.5782 34.8804 40.0278 34.8071 39.2792V33.0839H40.5055Z" fill="#B4D0ED"/>
<path d="M38.3686 33.0839V39.0316C38.3663 39.8518 37.7298 40.5161 36.944 40.5185H36.2317C35.4459 40.5161 34.8095 39.8518 34.8071 39.0316V33.0839H38.3686Z" fill="#137DEA"/>
<path d="M42.6422 29.3667V30.8536C42.6422 32.0854 41.6855 33.084 40.5053 33.084H3.46593C2.28576 33.084 1.32904 32.0854 1.32904 30.8536V29.3667C1.32904 28.9561 1.64795 28.6232 2.04134 28.6232H41.9299C42.3233 28.6232 42.6422 28.9561 42.6422 29.3667Z" fill="#545C60"/>
<path d="M40.5053 29.3667V30.8536C40.5053 32.0854 39.5486 33.084 38.3684 33.084H3.46593C2.28576 33.084 1.32904 32.0854 1.32904 30.8536V29.3667C1.32904 28.9561 1.64795 28.6232 2.04134 28.6232H39.793C40.1864 28.6232 40.5053 28.9561 40.5053 29.3667Z" fill="#7F8E94"/>
<path d="M15.5751 28.6232H28.3964V33.084C28.3964 33.4946 28.0775 33.8274 27.6841 33.8274H16.2874C15.894 33.8274 15.5751 33.4946 15.5751 33.084V28.6232Z" fill="#F5F5F5"/>
<path d="M36.2313 15.2409H36.0817C33.2539 11.65 26.943 12.2671 21.9854 12.2671C17.4303 12.2671 10.6998 11.6084 7.88908 15.2409H7.7395L8.84356 9.46422C9.44635 6.33788 12.0778 4.08899 15.1331 4.089C30.3207 4.089 29.5571 3.95815 30.9746 4.4756C33.1058 5.25626 34.6843 7.15254 35.1273 9.46422L36.2313 15.2409Z" fill="#B4D0ED"/>
<path d="M31.8293 4.8693C27.9473 5.10721 11.7996 6.52722 8.90767 14.2295C8.52783 14.5193 8.18547 14.8592 7.88908 15.2406H7.7395L8.84356 9.46389C9.44635 6.33755 12.0778 4.08866 15.1331 4.08867H28.8377C29.8809 4.09133 30.9077 4.35927 31.8293 4.8693V4.8693Z" fill="#137DEA"/>
<path d="M21.9852 28.6232H2.04095L2.04095 22.6755C2.04001 19.563 4.33832 16.9761 7.31194 16.7427H7.32619C9.82269 16.9461 11.9549 18.7018 12.7254 21.1886C14.15 25.6494 15.5746 28.6232 21.9852 28.6232Z" fill="#68AFF9"/>
<path d="M41.9297 22.6755V28.6232H21.9855C28.3961 28.6232 29.8207 25.6494 31.2453 21.1886C32.0061 18.6947 34.1437 16.9346 36.6445 16.7427H36.6588C39.6324 16.9761 41.9307 19.563 41.9297 22.6755Z" fill="#238FFD"/>
<path d="M39.7929 22.6755L39.7929 28.6232H21.9855C28.3961 28.6232 29.8207 25.6493 31.2453 21.1886C31.8776 19.0702 33.5306 17.455 35.5974 16.936H35.6046C38.0799 17.6461 39.7948 19.996 39.7929 22.6755Z" fill="#68AFF9"/>
<path d="M36.9434 16.7278C36.838 16.7278 36.6585 16.7427 36.6442 16.7427C34.1446 16.9378 32.0086 18.6967 31.245 21.1886C29.668 26.1148 28.029 28.6232 21.9852 28.6232C16.0112 28.6232 14.3166 26.1802 12.7253 21.1886C11.9548 18.7018 9.82264 16.9461 7.32614 16.7427C7.3119 16.7427 7.1324 16.7278 7.02698 16.7278C9.17669 11.4812 16.4791 12.2671 21.9852 12.2671C27.5411 12.2671 34.7972 11.4924 36.9434 16.7278Z" fill="#68AFF9"/>
<path d="M24.7322 12.2366C29.0452 12.3043 33.2577 12.9488 34.8069 16.7279C34.7015 16.7279 34.522 16.7427 34.5078 16.7427C32.0082 16.9378 29.8721 18.6967 29.1086 21.1886C27.6284 25.8122 26.0927 28.3058 20.9122 28.5942C21.2541 28.6136 21.6119 28.6232 21.9856 28.6232C28.0294 28.6232 29.6684 26.1148 31.2454 21.1886C32.009 18.6967 34.145 16.9378 36.6447 16.7427C36.661 16.7427 36.8384 16.7279 36.9438 16.7279C35.1381 12.3229 29.7169 12.1734 24.7322 12.2366Z" fill="#238FFD"/>
<path d="M7.02733 24.9059C8.2075 24.9059 9.16422 23.9073 9.16422 22.6755C9.16422 21.4437 8.2075 20.4451 7.02733 20.4451C5.84716 20.4451 4.89044 21.4437 4.89044 22.6755C4.89044 23.9073 5.84716 24.9059 7.02733 24.9059Z" fill="#B4D0ED"/>
<path d="M36.9438 24.9059C38.1239 24.9059 39.0807 23.9073 39.0807 22.6755C39.0807 21.4437 38.1239 20.4451 36.9438 20.4451C35.7636 20.4451 34.8069 21.4437 34.8069 22.6755C34.8069 23.9073 35.7636 24.9059 36.9438 24.9059Z" fill="#B4D0ED"/>
<path d="M42.6419 28.0864V22.6755C42.6259 19.4757 40.4506 16.7315 37.4421 16.116C37.2933 15.7972 37.1219 15.4906 36.9293 15.1985C36.9321 15.1642 36.9321 15.1296 36.9293 15.0952L35.8238 9.32223C35.1509 5.85145 32.2317 3.3536 28.839 3.34556H15.1316C11.7389 3.3536 8.81976 5.85145 8.14684 9.32223L7.04136 15.0922C7.03851 15.1269 7.03851 15.1617 7.04136 15.1963C6.85015 15.4849 6.68037 15.7884 6.5335 16.1041C3.51921 16.7189 1.34036 19.4699 1.32875 22.6755V28.0864C0.889441 28.3499 0.617983 28.8378 0.616455 29.3667V30.8536C0.621309 32.2055 1.49921 33.3839 2.75334 33.7218V39.0316C2.7557 39.2855 2.80004 39.537 2.8844 39.7751H1.32875C0.935361 39.7751 0.616455 40.108 0.616455 40.5186C0.616455 40.9292 0.935361 41.262 1.32875 41.262H11.3009C11.6943 41.262 12.0132 40.9292 12.0132 40.5186C12.0132 40.108 11.6943 39.7751 11.3009 39.7751H9.74524C9.8296 39.537 9.87394 39.2855 9.8763 39.0316V33.8274H15.0604C15.3128 34.2859 15.7803 34.5693 16.287 34.5709H27.6837C28.1904 34.5693 28.6578 34.2859 28.9103 33.8274H34.0944V39.0316C34.0967 39.2855 34.141 39.537 34.2254 39.7751H32.6698C32.2764 39.7751 31.9575 40.108 31.9575 40.5186C31.9575 40.9292 32.2764 41.262 32.6698 41.262H42.6419C43.0353 41.262 43.3542 40.9292 43.3542 40.5186C43.3542 40.108 43.0353 39.7751 42.6419 39.7751H41.0862C41.1706 39.537 41.2149 39.2855 41.2173 39.0316V33.7218C42.4714 33.3839 43.3493 32.2055 43.3542 30.8536V29.3667C43.3527 28.8378 43.0812 28.3499 42.6419 28.0864V28.0864ZM41.2173 22.6755V27.8797H28.047C30.1048 26.4828 31.0343 24.1989 31.9204 21.4235C32.5882 19.2309 34.4594 17.677 36.6565 17.4906C39.2313 17.7306 41.2077 19.9773 41.2173 22.6755V22.6755ZM13.4007 20.9537C12.6283 18.4618 10.6174 16.6065 8.15326 16.1123C9.88342 13.4232 13.5831 13.0031 17.5399 12.9756C17.6516 13.0227 17.7765 13.0227 17.8882 12.9756C18.609 12.9756 19.3356 12.983 20.0593 12.9934C21.3671 13.0113 22.6036 13.0113 23.9114 12.9934H24.0261C24.0921 13.0212 24.1659 13.0212 24.2319 12.9934C28.9658 12.9302 33.7681 12.934 35.8174 16.116C33.3533 16.6103 31.3423 18.4655 30.5699 20.9574C29.193 25.2628 27.9287 27.8797 21.9853 27.8797C16.0419 27.8797 14.7776 25.2628 13.4007 20.9537V20.9537ZM15.1316 4.83248H28.839C31.5531 4.839 33.8884 6.83714 34.427 9.61367L35.1485 13.3823C32.7417 11.7214 29.2849 11.485 25.8766 11.4872L28.8996 8.33194C29.1695 8.04023 29.1657 7.57653 28.8909 7.28975C28.6161 7.00297 28.1719 6.99894 27.8924 7.28069L23.8437 11.5065C22.5673 11.5229 21.3564 11.5229 20.0778 11.5065L19.456 11.4983L22.4889 8.33269C22.7589 8.04097 22.755 7.57727 22.4802 7.29049C22.2055 7.00371 21.7612 6.99968 21.4817 7.28143L17.4466 11.4931C14.2526 11.5229 11.0765 11.8284 8.82139 13.3838L9.54366 9.61441C10.0819 6.83759 12.4173 4.83907 15.1316 4.83248V4.83248ZM2.75334 22.6755C2.75894 19.9804 4.72976 17.7329 7.30135 17.4891C9.50322 17.6715 11.3803 19.2267 12.0502 21.4235C12.9392 24.1989 13.8652 26.4828 15.9237 27.8797H2.75334V22.6755ZM2.04105 30.8536V29.3667H14.8624V32.3405H3.46564C2.67886 32.3405 2.04105 31.6748 2.04105 30.8536ZM8.45171 39.0316C8.45171 39.4422 8.1328 39.7751 7.73941 39.7751H4.89023C4.49684 39.7751 4.17793 39.4422 4.17793 39.0316V33.8274H8.45171V39.0316ZM16.287 33.084V29.3667H27.6837V33.084H16.287ZM36.2312 39.7751C35.8378 39.7751 35.5189 39.4422 35.5189 39.0316V33.8274H39.7927V39.0316C39.7927 39.4422 39.4738 39.7751 39.0804 39.7751H36.2312ZM41.9296 30.8536C41.9296 31.6748 41.2918 32.3405 40.505 32.3405H29.1083V29.3667H41.9296V30.8536Z" fill="black"/>
<path d="M7.02704 19.7017C5.45348 19.7017 4.17786 21.0331 4.17786 22.6755C4.17786 24.3179 5.45348 25.6494 7.02704 25.6494C8.6006 25.6494 9.87622 24.3179 9.87622 22.6755C9.87622 21.0331 8.6006 19.7017 7.02704 19.7017ZM7.02704 24.1624C6.24026 24.1624 5.60245 23.4967 5.60245 22.6755C5.60245 21.8543 6.24026 21.1886 7.02704 21.1886C7.81382 21.1886 8.45163 21.8543 8.45163 22.6755C8.45163 23.4967 7.81382 24.1624 7.02704 24.1624Z" fill="black"/>
<path d="M34.0944 22.6755C34.0944 24.3179 35.37 25.6494 36.9435 25.6494C38.5171 25.6494 39.7927 24.3179 39.7927 22.6755C39.7927 21.0331 38.5171 19.7017 36.9435 19.7017C35.37 19.7017 34.0944 21.0331 34.0944 22.6755ZM38.3681 22.6755C38.3681 23.4967 37.7303 24.1624 36.9435 24.1624C36.1568 24.1624 35.519 23.4967 35.519 22.6755C35.519 21.8543 36.1568 21.1886 36.9435 21.1886C37.7303 21.1886 38.3681 21.8543 38.3681 22.6755Z" fill="black"/>
<path d="M21.9853 18.2148C21.5919 18.2148 21.273 18.5476 21.273 18.9582V25.6494C21.273 26.06 21.5919 26.3928 21.9853 26.3928C22.3787 26.3928 22.6976 26.06 22.6976 25.6494V18.9582C22.6976 18.5476 22.3787 18.2148 21.9853 18.2148Z" fill="black"/>
<path d="M21.9853 14.4975C21.5919 14.4975 21.273 14.8303 21.273 15.2409V15.9844C21.273 16.395 21.5919 16.7279 21.9853 16.7279C22.3787 16.7279 22.6976 16.395 22.6976 15.9844V15.2409C22.6976 14.8303 22.3787 14.4975 21.9853 14.4975Z" fill="black"/>
<path d="M14.8626 41.262C15.256 41.262 15.5749 40.9291 15.5749 40.5185C15.5749 40.1079 15.256 39.7751 14.8626 39.7751H14.1503C13.757 39.7751 13.438 40.1079 13.438 40.5185C13.438 40.9291 13.757 41.262 14.1503 41.262H14.8626Z" fill="black"/>
<path d="M29.8205 41.262C30.2139 41.262 30.5328 40.9291 30.5328 40.5185C30.5328 40.1079 30.2139 39.7751 29.8205 39.7751H29.1082C28.7148 39.7751 28.3959 40.1079 28.3959 40.5185C28.3959 40.9291 28.7148 41.262 29.1082 41.262H29.8205Z" fill="black"/>
</g>
<defs>
<clipPath id="clip0">
<rect width="42.7377" height="44.6076" fill="white" transform="translate(0.616455)"/>
</clipPath>
</defs>
</svg>
