<svg width="277" height="77" viewBox="0 0 277 77" fill="none" xmlns="http://www.w3.org/2000/svg">
<path d="M113.86 45.228C116.252 45.748 118.089 46.788 119.372 48.348C120.689 49.8733 121.348 51.8493 121.348 54.276C121.348 57.396 120.187 59.8053 117.864 61.504C115.576 63.168 112.179 64 107.672 64H90.928V27.6H106.632C110.688 27.6 113.825 28.4147 116.044 30.044C118.297 31.6733 119.424 33.9787 119.424 36.96C119.424 38.9707 118.921 40.6867 117.916 42.108C116.945 43.4947 115.593 44.5347 113.86 45.228ZM94.776 30.772V43.98H106.372C109.319 43.98 111.589 43.4253 113.184 42.316C114.779 41.172 115.576 39.5253 115.576 37.376C115.576 35.2267 114.779 33.5973 113.184 32.488C111.589 31.344 109.319 30.772 106.372 30.772H94.776ZM107.62 60.828C110.879 60.828 113.34 60.2733 115.004 59.164C116.668 58.0547 117.5 56.3213 117.5 53.964C117.5 49.4227 114.207 47.152 107.62 47.152H94.776V60.828H107.62ZM153.999 36.648V64H150.463V59.008C149.492 60.672 148.158 61.972 146.459 62.908C144.76 63.8093 142.819 64.26 140.635 64.26C137.064 64.26 134.239 63.272 132.159 61.296C130.114 59.2853 129.091 56.356 129.091 52.508V36.648H132.783V52.144C132.783 55.0213 133.494 57.2053 134.915 58.696C136.336 60.1867 138.364 60.932 140.999 60.932C143.876 60.932 146.147 60.0653 147.811 58.332C149.475 56.564 150.307 54.12 150.307 51V36.648H153.999ZM164.339 36.648H168.031V64H164.339V36.648ZM166.211 30.668C165.449 30.668 164.807 30.408 164.287 29.888C163.767 29.368 163.507 28.744 163.507 28.016C163.507 27.3227 163.767 26.716 164.287 26.196C164.807 25.676 165.449 25.416 166.211 25.416C166.974 25.416 167.615 25.676 168.135 26.196C168.655 26.6813 168.915 27.2707 168.915 27.964C168.915 28.7267 168.655 29.368 168.135 29.888C167.615 30.408 166.974 30.668 166.211 30.668ZM178.304 25.416H181.996V64H178.304V25.416ZM217.229 25.416V64H213.693V58.592C212.584 60.4293 211.11 61.8333 209.273 62.804C207.47 63.7747 205.425 64.26 203.137 64.26C200.572 64.26 198.249 63.6707 196.169 62.492C194.089 61.3133 192.46 59.6667 191.281 57.552C190.102 55.4373 189.513 53.028 189.513 50.324C189.513 47.62 190.102 45.2107 191.281 43.096C192.46 40.9813 194.089 39.352 196.169 38.208C198.249 37.0293 200.572 36.44 203.137 36.44C205.356 36.44 207.349 36.908 209.117 37.844C210.92 38.7453 212.393 40.08 213.537 41.848V25.416H217.229ZM203.449 60.984C205.356 60.984 207.072 60.5507 208.597 59.684C210.157 58.7827 211.37 57.5173 212.237 55.888C213.138 54.2587 213.589 52.404 213.589 50.324C213.589 48.244 213.138 46.3893 212.237 44.76C211.37 43.1307 210.157 41.8827 208.597 41.016C207.072 40.1147 205.356 39.664 203.449 39.664C201.508 39.664 199.757 40.1147 198.197 41.016C196.672 41.8827 195.458 43.1307 194.557 44.76C193.69 46.3893 193.257 48.244 193.257 50.324C193.257 52.404 193.69 54.2587 194.557 55.888C195.458 57.5173 196.672 58.7827 198.197 59.684C199.757 60.5507 201.508 60.984 203.449 60.984ZM252.731 50.272C252.731 50.7227 252.697 51.364 252.627 52.196H230.839C231.221 54.2413 232.209 55.8707 233.803 57.084C235.433 58.2627 237.443 58.852 239.835 58.852C242.886 58.852 245.399 57.8467 247.375 55.836L250.859 59.84C249.611 61.3307 248.034 62.4573 246.127 63.22C244.221 63.9827 242.071 64.364 239.679 64.364C236.629 64.364 233.942 63.7573 231.619 62.544C229.297 61.3307 227.494 59.6493 226.211 57.5C224.963 55.316 224.339 52.8547 224.339 50.116C224.339 47.412 224.946 44.9853 226.159 42.836C227.407 40.652 229.123 38.9533 231.307 37.74C233.491 36.5267 235.953 35.92 238.691 35.92C241.395 35.92 243.805 36.5267 245.919 37.74C248.069 38.9187 249.733 40.6 250.911 42.784C252.125 44.9333 252.731 47.4293 252.731 50.272ZM238.691 41.12C236.611 41.12 234.843 41.744 233.387 42.992C231.966 44.2053 231.099 45.8347 230.787 47.88H246.543C246.266 45.8693 245.417 44.24 243.995 42.992C242.574 41.744 240.806 41.12 238.691 41.12ZM265.163 40.288C267.035 37.376 270.328 35.92 275.043 35.92V42.108C274.488 42.004 273.986 41.952 273.535 41.952C271.004 41.952 269.028 42.6973 267.607 44.188C266.186 45.644 265.475 47.7587 265.475 50.532V64H258.975V36.232H265.163V40.288Z" fill="white"/>
<path d="M7.18182 63.8233V16.098C7.1816 15.3614 7.40823 14.6425 7.83094 14.0391C8.25365 13.4356 8.85196 12.9768 9.54464 12.7249L44.2723 0.10819C44.5436 0.00953068 44.8347 -0.0223086 45.1209 0.0153712C45.4071 0.053051 45.68 0.159139 45.9164 0.324641C46.1529 0.490142 46.3459 0.710177 46.4791 0.966089C46.6124 1.222 46.6819 1.50625 46.6818 1.79472V19.5679L69.362 27.1214C70.0773 27.3595 70.6995 27.8166 71.1404 28.4278C71.5812 29.039 71.8184 29.7734 71.8182 30.5268V63.8233H79V71H0V63.8233H7.18182ZM14.3636 63.8233H39.5V9.47742L14.3636 18.6134V63.8233ZM64.6364 63.8233V33.114L46.6818 27.1322V63.8233H64.6364Z" fill="#419FFE"/>
</svg>
