<svg width="40" height="40" viewBox="0 0 40 40" fill="none" xmlns="http://www.w3.org/2000/svg">
<g clip-path="url(#clip0)">
<path d="M36.8768 11.5084L29.9405 4.60839V32.2584H39.2234V17.1107C39.2234 15.0074 38.3787 12.9909 36.8768 11.5084Z" fill="#D7EAFF"/>
<path d="M6.1866 27.2201L0.94312 13.7045C0.416651 12.3477 1.09764 10.8237 2.46484 10.301L27.215 0.835435C28.5815 0.312723 30.1166 0.988854 30.643 2.3463L35.8865 15.8619C36.413 17.2187 35.732 18.7428 34.3648 19.2655L9.6153 28.731C8.24803 29.2537 6.71372 28.5769 6.1866 27.2201Z" fill="#419FFE"/>
<path d="M32.5332 7.21536L2.85712 18.6361L4.83307 23.729L34.5105 12.3135L32.5332 7.21536Z" fill="#0465C7"/>
<path d="M0.765198 17.775V3.29165C0.765198 1.83741 1.95275 0.658325 3.41744 0.658325H29.94C31.4047 0.658325 32.5923 1.83741 32.5923 3.29165V17.775C32.5923 19.2292 31.4047 20.4083 29.94 20.4083H3.41744C1.95275 20.4084 0.765198 19.2293 0.765198 17.775Z" fill="#68AFF9"/>
<path d="M29.9403 0.658325H27.1223L7.23041 20.4084H29.9403C31.405 20.4084 32.5926 19.2293 32.5926 17.775V3.29165C32.5926 1.83741 31.405 0.658325 29.9403 0.658325Z" fill="#137DEA"/>
<path d="M6.07046 10.1657H3.41821V11.4824H6.07046V10.1657Z" fill="#0358AE"/>
<path d="M6.07052 15.1417H3.41827V16.4584H6.07052V15.1417Z" fill="#0358AE"/>
<path d="M18.0056 15.1417H15.3534V16.4584H18.0056V15.1417Z" fill="#0358AE"/>
<path d="M10.0488 11.1917H7.39655V12.5084H10.0488V11.1917Z" fill="#0358AE"/>
<path d="M14.0274 11.1917H11.3751V12.5084H14.0274V11.1917Z" fill="#0358AE"/>
<path d="M18.0056 11.1917H15.3534V12.5084H18.0056V11.1917Z" fill="#0358AE"/>
<path d="M29.2775 3.29163H27.9514V5.26664H29.2775V3.29163Z" fill="#0358AE"/>
<path d="M26.6255 3.29163H25.2993V5.26664H26.6255V3.29163Z" fill="#0358AE"/>
<path d="M23.9728 3.29163H22.6467V5.26664H23.9728V3.29163Z" fill="#0358AE"/>
<path d="M21.3208 3.29163H19.9946V5.26664H21.3208V3.29163Z" fill="#0358AE"/>
<path d="M39.2236 32.2583H27.2885V38.8417H39.2236V32.2583Z" fill="#137DEA"/>
<path d="M25.3425 12.5511C24.2179 11.4385 22.3978 11.4418 21.2772 12.5584C20.1938 13.6381 20.156 15.3728 21.1917 16.4978L26.6255 22.3834C24.9924 25.2214 25.062 28.7212 26.8065 31.4927L27.2885 32.2584H35.9085V23.0417L25.3425 12.5511Z" fill="#D7EAFF"/>
<path d="M30.6041 34.2334H29.278V35.5501H30.6041V34.2334Z" fill="#137DEA"/>
<path d="M3.41827 7.50502V4.34503C3.41827 3.76304 3.893 3.2917 4.47917 3.2917H7.66186C8.24804 3.2917 8.72276 3.76304 8.72276 4.34503V7.50502C8.72276 8.08701 8.24804 8.55835 7.66186 8.55835H4.47924C3.89306 8.55835 3.41827 8.08695 3.41827 7.50502Z" fill="#FDB62F"/>
<path d="M5.40747 5.26665H3.41827V6.58335H5.40747V5.26665Z" fill="#FD7B2F"/>
<path d="M8.72217 5.26665H6.73297V6.58335H8.72217V5.26665Z" fill="#FD7B2F"/>
<path d="M35.2452 23.0417C35.0695 23.0417 34.9004 22.9725 34.7764 22.8488L32.1242 20.2155C31.8696 19.9541 31.8769 19.5374 32.1408 19.2846C32.3981 19.0384 32.8052 19.0384 33.0618 19.2846L35.714 21.9179C35.9726 22.1753 35.9726 22.592 35.714 22.8488C35.5894 22.9725 35.4209 23.0417 35.2452 23.0417Z" fill="#F2A46F"/>
<path d="M35.7345 15.9174L35.7345 15.9175C36.23 17.1958 35.5868 18.6275 34.3055 19.1174L35.7345 15.9174ZM35.7345 15.9174L33.722 10.7304L33.2559 10.9112H32.7559V17.7742C32.7553 18.1582 32.6745 18.5377 32.5189 18.8892L32.2068 19.594L25.2255 12.6643L25.225 12.6638C24.1999 11.6492 22.5539 11.614 21.4854 12.583L21.4852 12.5831C20.3782 13.5876 20.3005 15.2942 21.312 16.3939L21.3127 16.3946L26.7463 22.2799C26.7935 22.3311 26.8012 22.4042 26.7674 22.4631C25.1618 25.2499 25.2301 28.6888 26.9455 31.4104L26.9456 31.4105L27.2333 31.8668L27.3805 32.1H27.6562H38.5604H39.0604L39.0604 31.6L39.0602 17.1107L39.0602 17.1093C39.0546 15.049 38.2272 13.0754 36.7608 11.6201L34.6129 9.48356L33.7941 10.0189L36.0385 15.8048C36.0385 15.8049 36.0386 15.8049 36.0386 15.805C36.5946 17.2403 35.876 18.8545 34.425 19.4101L34.4233 19.4107L33.7429 19.6741L33.0243 19.9523L33.5711 20.4952L35.6671 22.5762L35.4392 22.8026L32.4452 19.8307L33.1551 19.5585L34.305 19.1176L35.7345 15.9174ZM32.7559 6.97441V7.1823L32.9033 7.32891L36.9936 11.3974L36.9938 11.3976C38.5212 12.9148 39.3808 14.9688 39.3864 17.112V38.8417C39.3864 38.9256 39.3166 39 39.2233 39H27.2882C27.195 39 27.1252 38.9256 27.1252 38.8417V32.4466V32.3024L27.0484 32.1804L26.6678 31.5754L26.6675 31.575C25.1557 29.1765 24.8663 26.2136 25.8849 23.5718L26.289 22.5236L25.2398 22.9249L9.67501 28.8775L9.67495 28.8776C8.22107 29.4338 6.59239 28.7133 6.03441 27.2756C6.0344 27.2755 6.03439 27.2755 6.03439 27.2755L3.54197 20.8515L3.43111 20.5658L3.12617 20.5349C1.69337 20.3899 0.607514 19.1962 0.602661 17.7741V3.29191C0.604462 1.75421 1.86075 0.501784 3.41824 0.5H29.9402C31.4978 0.501784 32.7542 1.75435 32.7559 3.2922V6.97441ZM32.4298 7.39673V3.29164C32.4298 1.92129 31.312 0.81663 29.9406 0.81663H3.41802C2.04657 0.81663 0.928816 1.92129 0.928816 3.29164V17.775C0.928816 19.1454 2.04649 20.25 3.41795 20.25H23.2947H24.436L23.6623 19.4111L21.0765 16.6071C21.076 16.6065 21.0754 16.6059 21.0749 16.6053C20.0101 15.4245 20.0492 13.6277 21.1653 12.4937L21.1653 12.4936C22.3371 11.3025 24.2602 11.2796 25.461 12.442L31.5324 18.4709L32.174 19.108L32.3725 18.2258C32.4046 18.0832 32.4227 17.9395 32.4293 17.7981L32.4298 17.7866V17.775V7.976V7.49116V7.476V7.39673ZM10.1019 21.5337L9.9233 20.5667H4.51069H3.78106L4.04439 21.2471L4.74195 23.0497L4.92167 23.5141L5.3868 23.3362L10.1019 21.5337ZM6.33935 27.1637L6.3395 27.164C6.83508 28.4404 8.27559 29.073 9.55562 28.5831C9.55564 28.5831 9.55565 28.5831 9.55567 28.5831L25.5507 22.4626L26.2404 22.1987L25.7393 21.6563L24.8773 20.7234L24.7288 20.5627H24.51H13.602H13.102V20.7226L5.50835 23.628L5.03945 23.8074L5.22077 24.2755L6.33935 27.1637ZM38.5604 38.6834H39.0604V38.1834V32.9167V32.4167H38.5604H27.9513H27.4513V32.9167V38.1834V38.6834H27.9513H38.5604Z" fill="black" stroke="black"/>
<path d="M7.66145 9.21665C8.61364 9.21665 9.3854 8.45033 9.3854 7.505V4.34501C9.3854 3.39962 8.61357 2.63337 7.66145 2.63337H4.47876C3.52658 2.63337 2.75482 3.39969 2.75482 4.34501V7.505C2.75482 8.4504 3.52664 9.21665 4.47876 9.21665H7.66145ZM4.08091 7.505V6.58332H5.407V5.26663H4.08091V4.34501C4.08091 4.12713 4.25925 3.95 4.47876 3.95H7.66145C7.8809 3.95 8.05931 4.12707 8.05931 4.34501V5.26663H6.73315V6.58332H8.05931V7.505C8.05931 7.72289 7.88097 7.90002 7.66145 7.90002H4.47876C4.25925 7.89995 4.08091 7.72289 4.08091 7.505Z" fill="black"/>
<path d="M6.07052 11.1917H3.41827V12.5084H6.07052V11.1917Z" fill="black"/>
<path d="M6.07052 15.1417H3.41827V16.4584H6.07052V15.1417Z" fill="black"/>
<path d="M18.0056 15.1417H15.3534V16.4584H18.0056V15.1417Z" fill="black"/>
<path d="M10.0488 11.1917H7.39655V12.5084H10.0488V11.1917Z" fill="black"/>
<path d="M14.0274 11.1917H11.3751V12.5084H14.0274V11.1917Z" fill="black"/>
<path d="M18.0056 11.1917H15.3534V12.5084H18.0056V11.1917Z" fill="black"/>
<path d="M29.2775 3.29163H27.9514V5.26664H29.2775V3.29163Z" fill="black"/>
<path d="M26.6255 3.29163H25.2993V5.26664H26.6255V3.29163Z" fill="black"/>
<path d="M23.9728 3.29163H22.6467V5.26664H23.9728V3.29163Z" fill="black"/>
<path d="M21.3208 3.29163H19.9946V5.26664H21.3208V3.29163Z" fill="black"/>
<path d="M30.6041 34.2334H29.278V35.5501H30.6041V34.2334Z" fill="black"/>
</g>
<defs>
<clipPath id="clip0">
<rect width="39.7838" height="39.5" fill="white" transform="translate(0.102661)"/>
</clipPath>
</defs>
</svg>
