<svg width="66" height="66" viewBox="0 0 66 66" fill="none" xmlns="http://www.w3.org/2000/svg">
<g clip-path="url(#clip0)">
<path fill-rule="evenodd" clip-rule="evenodd" d="M22.0593 17.4482L29.6691 15.229L26.023 1.79224L22.4024 3.49036L22.3511 5.57671L22.0593 17.4482Z" fill="#137DEA"/>
<path fill-rule="evenodd" clip-rule="evenodd" d="M26.023 1.79224L29.6692 15.229V57.9053H36.3762V15.229L40.0224 1.79224C37.894 2.90231 35.48 3.48681 33.0226 3.48681C30.5651 3.48681 28.1511 2.90231 26.023 1.79224V1.79224Z" fill="#4B9EF4"/>
<path fill-rule="evenodd" clip-rule="evenodd" d="M40.0223 1.79224L36.376 15.229L43.9859 17.4482L43.694 5.57671L43.6427 3.49036L40.0223 1.79224Z" fill="#137DEA"/>
<path fill-rule="evenodd" clip-rule="evenodd" d="M43.9859 17.4482L36.376 15.229V57.9053V62.9835L39.0554 64.2531L52.0652 60.4443L50.7956 51.8323V34.6683L60.9523 28.3205C58.1843 22.2609 55.7182 16.8623 52.9503 10.8027C52.2707 9.31524 51.5735 8.61776 50.1091 7.88143L43.694 5.57672L43.9859 17.4482Z" fill="#68AFF9"/>
<path fill-rule="evenodd" clip-rule="evenodd" d="M29.6691 57.9053V15.229L22.0593 17.4482L22.3512 5.57672L15.9361 7.88143C14.4718 8.61788 13.7745 9.31524 13.0949 10.8027C10.3269 16.8623 7.86098 22.2609 5.0929 28.3205L15.2495 34.6684V51.8325L13.98 60.4445L26.9898 64.2531L29.6691 62.9835V57.9053Z" fill="#68AFF9"/>
<path d="M62.1069 27.7928L54.1049 10.2751C53.3142 8.54446 52.4178 7.62138 50.6793 6.74706C50.6336 6.72408 50.5865 6.70389 50.5382 6.6865L44.9418 4.67582L44.9118 3.45898C44.9 2.97808 44.6173 2.54517 44.1818 2.34078L40.5611 0.642782C40.2215 0.483329 39.8289 0.48244 39.4886 0.640116C39.4379 0.663602 39.3897 0.691278 39.3432 0.720858C39.3087 0.734442 39.2746 0.748914 39.241 0.765799C37.3449 1.71528 35.1946 2.21725 33.0224 2.21725C30.8503 2.21725 28.7001 1.71528 26.804 0.765672C26.7704 0.748787 26.7362 0.734442 26.702 0.720858C26.6552 0.691278 26.6071 0.663602 26.5563 0.640116C26.216 0.482567 25.8236 0.483456 25.4838 0.642782L21.8633 2.3409C21.4277 2.54517 21.1451 2.97821 21.1333 3.4591L21.1033 4.67595L15.5067 6.6865C15.4585 6.70389 15.4114 6.72408 15.3657 6.74706C13.6271 7.62138 12.7307 8.54458 11.9401 10.2751L3.93803 27.7928C3.67321 28.3726 3.87938 29.059 4.41995 29.397L13.9799 35.3719V51.7392L12.7238 60.2591C12.6314 60.8857 13.0152 61.4846 13.623 61.6627L26.6328 65.4714C26.7496 65.5055 26.8697 65.5224 26.9895 65.5224C27.176 65.5224 27.3619 65.4813 27.5331 65.4002L30.2124 64.1305C30.6558 63.9204 30.9384 63.4738 30.9384 62.9832V59.1745H35.1062V62.9834C35.1062 63.4739 35.3888 63.9205 35.8321 64.1306L38.5115 65.4003C38.6827 65.4814 38.8686 65.5226 39.0551 65.5226C39.1749 65.5226 39.295 65.5055 39.4118 65.4715L52.4217 61.6628C53.0297 61.4848 53.4135 60.8859 53.3209 60.2592L52.0648 51.7393V35.372L61.6248 29.3971C62.1656 29.059 62.3718 28.3727 62.1069 27.7928V27.7928ZM42.6739 15.7431L37.9274 14.3589L40.8514 3.58339L42.3927 4.30626L42.6739 15.7431ZM23.6522 4.30626L25.1935 3.58339L28.1175 14.3589L23.371 15.7431L23.6522 4.30626ZM30.9385 56.6356V44.8191C30.9385 44.118 30.3701 43.5496 29.669 43.5496C28.9678 43.5496 28.3994 44.118 28.3994 44.8191V62.1801L26.8826 62.8988L15.3969 59.5364L16.5054 52.0174C16.5144 51.9563 16.5189 51.8943 16.5189 51.8323V24.5117C16.5189 23.8107 15.9506 23.2422 15.2494 23.2422C14.5482 23.2422 13.9799 23.8107 13.9799 24.5117V32.3778L6.71056 27.8344L14.2495 11.3302C14.7887 10.1499 15.2659 9.64882 16.4393 9.04948L21.0363 7.39794L20.79 17.4169C20.7801 17.8219 20.9639 18.2073 21.285 18.4544C21.6061 18.7013 22.0256 18.7799 22.4146 18.667L28.3996 16.9216V33.3933C28.3996 34.0944 28.9679 34.6629 29.6691 34.6629C30.3703 34.6629 30.9386 34.0944 30.9386 33.3933V15.2289C30.9386 15.1166 30.9238 15.0047 30.8943 14.8964L27.9256 3.95663C29.5579 4.4826 31.2851 4.75631 33.0224 4.75631C34.7598 4.75631 36.487 4.48247 38.1193 3.95663L35.1508 14.8963C35.1213 15.0047 35.1065 15.1164 35.1065 15.2288V56.6355H30.9385V56.6356ZM52.065 32.3778V24.5117C52.065 23.8107 51.4966 23.2422 50.7954 23.2422C50.0943 23.2422 49.5259 23.8107 49.5259 24.5117V51.8323C49.5259 51.8943 49.5305 51.9563 49.5395 52.0174L50.6479 59.5364L39.1622 62.8988L37.6454 62.1801V16.9216L43.6304 18.667C44.0192 18.7803 44.4389 18.7014 44.76 18.4544C45.081 18.2073 45.2649 17.822 45.255 17.4169L45.0087 7.39794L49.6056 9.04948C50.7791 9.64882 51.2563 10.1499 51.7955 11.3302L59.3344 27.8344L52.065 32.3778Z" fill="black"/>
<path d="M29.6691 37.8367H29.6682C28.967 37.8367 28.3992 38.4052 28.3992 39.1063C28.3992 39.8073 28.9679 40.3758 29.6691 40.3758C30.3702 40.3758 30.9386 39.8073 30.9386 39.1063C30.9386 38.4052 30.3702 37.8367 29.6691 37.8367V37.8367Z" fill="black"/>
</g>
<defs>
<clipPath id="clip0">
<rect width="65" height="65" fill="white" transform="translate(0.522583 0.522583)"/>
</clipPath>
</defs>
</svg>
